<?xml version="1.0" encoding="iso-8859-1"?>
<!-- Generator: Adobe Illustrator 19.0.0, SVG Export Plug-In . SVG Version: 6.00 Build 0)  -->
<svg xmlns="http://www.w3.org/2000/svg" xmlns:xlink="http://www.w3.org/1999/xlink" version="1.1" id="Capa_1" x="0px" y="0px" viewBox="0 0 512 512" style="enable-background:new 0 0 512 512;" xml:space="preserve" width="512px" height="512px">
<g>
	<g>
		<path d="M392,99.523c-16.538,0-30,13.462-30,30s13.462,30,30,30c16.538,0,30-13.462,30-30C422,112.985,408.538,99.523,392,99.523z    " fill="#4abdac"/>
	</g>
</g>
<g>
	<g>
		<path d="M392,9.523c-66.167,0-120,53.833-120,120s53.833,120,120,120s120-53.833,120-120S458.167,9.523,392,9.523z M392,189.523    c-33.091,0-60-26.909-60-60s26.909-60,60-60s60,26.909,60,60S425.091,189.523,392,189.523z" fill="#4abdac"/>
	</g>
</g>
<g>
	<g>
		<path d="M292.776,241.142c-23.646,15.504-43.927,35.607-59.61,59.136l-30.278,45.425l-9.536-29.531    c-10.706-33.159-34.574-43.68-63.974-52.5c3.878-16.802,6.621-26.678,6.621-44.15C136,135.236,40.04,83.063,0,86.998L0.115,349.84    c0.002,3.157,0.95,6.301,2.747,8.897c54.069,78.08,145.216,121.648,186.931,142.214c4.579,2.258,9.855,1.981,14.233-0.645    l62.173-37.299c52.321-31.388,92.465-79.578,113.884-136.707l17.759-47.371C356.987,280.551,321.559,266.754,292.776,241.142z" fill="#4abdac"/>
	</g>
</g>
<g>
</g>
<g>
</g>
<g>
</g>
<g>
</g>
<g>
</g>
<g>
</g>
<g>
</g>
<g>
</g>
<g>
</g>
<g>
</g>
<g>
</g>
<g>
</g>
<g>
</g>
<g>
</g>
<g>
</g>
</svg>
